<svg xmlns="http://www.w3.org/2000/svg" width="32" height="32" viewBox="0 0 32 32" fill="none">
  <defs>
    <linearGradient id="cw-ember" x1="6" y1="6" x2="26" y2="26" gradientUnits="userSpaceOnUse">
      <stop offset="0%" stop-color="#FBBF24"/>
      <stop offset="55%" stop-color="#F97316"/>
      <stop offset="100%" stop-color="#FB923C"/>
    </linearGradient>
    <radialGradient id="cw-glow" cx="0" cy="0" r="1" gradientUnits="userSpaceOnUse" gradientTransform="translate(10 8) rotate(45) scale(20 18)">
      <stop offset="0%" stop-color="#F97316" stop-opacity="0.35"/>
      <stop offset="70%" stop-color="#F97316" stop-opacity="0"/>
    </radialGradient>
  </defs>

  <rect width="32" height="32" rx="8" fill="#0B1220"/>
  <rect width="32" height="32" rx="8" fill="url(#cw-glow)"/>

  <!-- Coin ring -->
  <circle cx="16" cy="16" r="9" fill="#0C101B" stroke="url(#cw-ember)" stroke-width="2"/>
  <circle cx="16" cy="16" r="6.5" stroke="rgba(255,255,255,0.08)" stroke-width="1"/>

  <!-- Flame / growth mark (simple + legible at 16px) -->
  <path
    d="M16 10.2c1.6 2.1 2.4 3.8 2.4 5.2 0 1.9-1.1 3.1-2.4 3.1s-2.4-1.2-2.4-3.1c0-1.4.8-3.1 2.4-5.2Z"
    fill="url(#cw-ember)"
  />
  <path
    d="M12.8 20.1c.9 2.3 3 3.9 5.3 3.9 2.6 0 4.9-1.9 5.5-4.6.2-.9.2-1.7 0-2.5-.1-.4-.5-.6-.9-.4-1.2.6-2.4 1-3.6 1.1-1.7.2-3.3-.2-4.7-1.1-.4-.2-.9 0-1 .5-.3 1.1-.3 2.2-.6 3.1Z"
    fill="rgba(251,191,36,0.22)"
  />
</svg>
